<svg xmlns="http://www.w3.org/2000/svg" viewBox="0 0 420 140">
  <defs>
    <linearGradient id="bg" x1="0" x2="1" y1="0" y2="1">
      <stop offset="0%" stop-color="#0b1220" />
      <stop offset="100%" stop-color="#0a2a2a" />
    </linearGradient>
    <linearGradient id="glow" x1="0" x2="0" y1="0" y2="1">
      <stop offset="0%" stop-color="#34d399" stop-opacity="0.9" />
      <stop offset="100%" stop-color="#22d3ee" stop-opacity="0.6" />
    </linearGradient>
  </defs>

  <rect width="420" height="140" fill="url(#bg)" rx="12" />

  <g stroke="#1f2937" stroke-width="1" opacity="0.5">
    <path d="M20 20H400" />
    <path d="M20 50H400" />
    <path d="M20 80H400" />
    <path d="M20 110H400" />
  </g>

  <g stroke="#22c55e" stroke-width="2" fill="none" opacity="0.5">
    <path d="M20 95C60 80 100 98 140 78 180 58 220 70 260 56 300 42 340 60 380 40" />
  </g>

  <g stroke-linecap="round">
    <g stroke="#22c55e" fill="#22c55e">
      <line x1="40" y1="90" x2="40" y2="60" />
      <rect x="34" y="70" width="12" height="16" rx="2" />
    </g>
    <g stroke="#ef4444" fill="#ef4444">
      <line x1="70" y1="100" x2="70" y2="55" />
      <rect x="64" y="78" width="12" height="14" rx="2" />
    </g>
    <g stroke="#22c55e" fill="#22c55e">
      <line x1="100" y1="95" x2="100" y2="50" />
      <rect x="94" y="62" width="12" height="20" rx="2" />
    </g>
    <g stroke="#ef4444" fill="#ef4444">
      <line x1="130" y1="105" x2="130" y2="65" />
      <rect x="124" y="80" width="12" height="16" rx="2" />
    </g>
    <g stroke="#22c55e" fill="#22c55e">
      <line x1="160" y1="90" x2="160" y2="45" />
      <rect x="154" y="58" width="12" height="22" rx="2" />
    </g>
    <g stroke="#22c55e" fill="#22c55e">
      <line x1="190" y1="85" x2="190" y2="52" />
      <rect x="184" y="64" width="12" height="14" rx="2" />
    </g>
    <g stroke="#ef4444" fill="#ef4444">
      <line x1="220" y1="102" x2="220" y2="60" />
      <rect x="214" y="82" width="12" height="12" rx="2" />
    </g>
    <g stroke="#22c55e" fill="#22c55e">
      <line x1="250" y1="92" x2="250" y2="55" />
      <rect x="244" y="66" width="12" height="20" rx="2" />
    </g>
    <g stroke="#22c55e" fill="#22c55e">
      <line x1="280" y1="88" x2="280" y2="50" />
      <rect x="274" y="60" width="12" height="18" rx="2" />
    </g>
    <g stroke="#ef4444" fill="#ef4444">
      <line x1="310" y1="98" x2="310" y2="62" />
      <rect x="304" y="82" width="12" height="10" rx="2" />
    </g>
    <g stroke="#22c55e" fill="#22c55e">
      <line x1="340" y1="86" x2="340" y2="46" />
      <rect x="334" y="56" width="12" height="22" rx="2" />
    </g>
    <g stroke="#22c55e" fill="#22c55e">
      <line x1="370" y1="90" x2="370" y2="58" />
      <rect x="364" y="68" width="12" height="14" rx="2" />
    </g>
  </g>

  <rect x="16" y="16" width="388" height="108" rx="12" fill="none" stroke="url(#glow)" stroke-opacity="0.35" />
</svg>
